<?xml version="1.0" encoding="UTF-8"?>
<svg xmlns="http://www.w3.org/2000/svg" xmlns:xlink="http://www.w3.org/1999/xlink" width="400pt" height="190.44pt" viewBox="0 0 400 190.44" version="1.2">
<g id="surface1">
<path style="fill:none;stroke-width:36.2738;stroke-linecap:round;stroke-linejoin:round;stroke:rgb(0%,0%,0%);stroke-opacity:1;stroke-miterlimit:10;" d="M 714.590636 88.529106 L 714.590636 1815.859154 " transform="matrix(0.0997068,0,0,-0.0997068,0.586387,189.881642)"/>
<path style="fill:none;stroke-width:36.2738;stroke-linecap:round;stroke-linejoin:round;stroke:rgb(0%,0%,0%);stroke-opacity:1;stroke-miterlimit:10;" d="M 1290.3412 88.529106 L 1290.3412 1815.859154 " transform="matrix(0.0997068,0,0,-0.0997068,0.586387,189.881642)"/>
<path style="fill:none;stroke-width:36.2738;stroke-linecap:round;stroke-linejoin:round;stroke:rgb(0%,0%,0%);stroke-opacity:1;stroke-miterlimit:10;" d="M 138.800894 664.27967 L 1866.130942 664.27967 " transform="matrix(0.0997068,0,0,-0.0997068,0.586387,189.881642)"/>
<path style="fill:none;stroke-width:36.2738;stroke-linecap:round;stroke-linejoin:round;stroke:rgb(0%,0%,0%);stroke-opacity:1;stroke-miterlimit:10;" d="M 138.800894 1240.069412 L 1866.130942 1240.069412 " transform="matrix(0.0997068,0,0,-0.0997068,0.586387,189.881642)"/>
<path style="fill:none;stroke-width:36.2738;stroke-linecap:round;stroke-linejoin:round;stroke:rgb(0%,0%,0%);stroke-opacity:1;stroke-miterlimit:10;" d="M 2709.6588 88.529106 L 2709.6588 1815.859154 " transform="matrix(0.0997068,0,0,-0.0997068,0.586387,189.881642)"/>
<path style="fill:none;stroke-width:36.2738;stroke-linecap:round;stroke-linejoin:round;stroke:rgb(0%,0%,0%);stroke-opacity:1;stroke-miterlimit:10;" d="M 3285.409364 88.529106 L 3285.409364 1815.859154 " transform="matrix(0.0997068,0,0,-0.0997068,0.586387,189.881642)"/>
<path style="fill:none;stroke-width:36.2738;stroke-linecap:round;stroke-linejoin:round;stroke:rgb(0%,0%,0%);stroke-opacity:1;stroke-miterlimit:10;" d="M 2133.869058 664.27967 L 3861.199106 664.27967 " transform="matrix(0.0997068,0,0,-0.0997068,0.586387,189.881642)"/>
<path style="fill:none;stroke-width:36.2738;stroke-linecap:round;stroke-linejoin:round;stroke:rgb(0%,0%,0%);stroke-opacity:1;stroke-miterlimit:10;" d="M 2133.869058 1240.069412 L 3861.199106 1240.069412 " transform="matrix(0.0997068,0,0,-0.0997068,0.586387,189.881642)"/>
<path style="fill:none;stroke-width:36.2738;stroke-linecap:round;stroke-linejoin:round;stroke:rgb(0%,0%,0%);stroke-opacity:1;stroke-miterlimit:10;" d="M 3774.813015 1527.944694 C 3774.813015 1639.24759 3684.587542 1729.473063 3573.284647 1729.473063 C 3462.020929 1729.473063 3371.795456 1639.24759 3371.795456 1527.944694 C 3371.795456 1416.641799 3462.020929 1326.455503 3573.284647 1326.455503 C 3684.587542 1326.455503 3774.813015 1416.641799 3774.813015 1527.944694 C 3774.813015 1534.683201 3774.460419 1541.382531 3773.833581 1548.08186 " transform="matrix(0.0997068,0,0,-0.0997068,0.586387,189.881642)"/>
<path style="fill:none;stroke-width:36.2738;stroke-linecap:round;stroke-linejoin:round;stroke:rgb(0%,0%,0%);stroke-opacity:1;stroke-miterlimit:10;" d="M 2220.255149 1729.473063 L 2623.272709 1326.455503 " transform="matrix(0.0997068,0,0,-0.0997068,0.586387,189.881642)"/>
<path style="fill:none;stroke-width:36.2738;stroke-linecap:round;stroke-linejoin:round;stroke:rgb(0%,0%,0%);stroke-opacity:1;stroke-miterlimit:10;" d="M 2623.272709 1729.473063 L 2220.255149 1326.455503 " transform="matrix(0.0997068,0,0,-0.0997068,0.586387,189.881642)"/>
<path style="fill:none;stroke-width:36.2738;stroke-linecap:round;stroke-linejoin:round;stroke:rgb(0%,0%,0%);stroke-opacity:1;stroke-miterlimit:10;" d="M 3774.813015 952.19413 C 3774.813015 1063.497025 3684.587542 1153.683321 3573.284647 1153.683321 C 3462.020929 1153.683321 3371.795456 1063.497025 3371.795456 952.19413 C 3371.795456 840.891234 3462.020929 750.665761 3573.284647 750.665761 C 3684.587542 750.665761 3774.813015 840.891234 3774.813015 952.19413 C 3774.813015 958.893459 3774.460419 965.631966 3773.833581 972.292118 " transform="matrix(0.0997068,0,0,-0.0997068,0.586387,189.881642)"/>
<path style="fill:none;stroke-width:36.2738;stroke-linecap:round;stroke-linejoin:round;stroke:rgb(0%,0%,0%);stroke-opacity:1;stroke-miterlimit:10;" d="M 2796.005714 1153.683321 L 3199.062451 750.665761 " transform="matrix(0.0997068,0,0,-0.0997068,0.586387,189.881642)"/>
<path style="fill:none;stroke-width:36.2738;stroke-linecap:round;stroke-linejoin:round;stroke:rgb(0%,0%,0%);stroke-opacity:1;stroke-miterlimit:10;" d="M 3199.062451 1153.683321 L 2796.005714 750.665761 " transform="matrix(0.0997068,0,0,-0.0997068,0.586387,189.881642)"/>
<path style="fill:none;stroke-width:36.2738;stroke-linecap:round;stroke-linejoin:round;stroke:rgb(0%,0%,0%);stroke-opacity:1;stroke-miterlimit:10;" d="M 3371.795456 577.932756 L 3774.813015 174.876019 " transform="matrix(0.0997068,0,0,-0.0997068,0.586387,189.881642)"/>
<path style="fill:none;stroke-width:36.2738;stroke-linecap:round;stroke-linejoin:round;stroke:rgb(0%,0%,0%);stroke-opacity:1;stroke-miterlimit:10;" d="M 3774.813015 577.932756 L 3371.795456 174.876019 " transform="matrix(0.0997068,0,0,-0.0997068,0.586387,189.881642)"/>
<path style="fill:none;stroke-width:36.2738;stroke-linecap:round;stroke-linejoin:round;stroke:rgb(0%,0%,0%);stroke-opacity:1;stroke-miterlimit:10;" d="M 3199.062451 376.404388 C 3199.062451 487.707283 3108.836978 577.932756 2997.534082 577.932756 C 2886.231187 577.932756 2796.005714 487.707283 2796.005714 376.404388 C 2796.005714 265.101492 2886.231187 174.876019 2997.534082 174.876019 C 3108.836978 174.876019 3199.062451 265.101492 3199.062451 376.404388 C 3199.062451 383.142895 3198.709854 389.842224 3198.043839 396.541554 " transform="matrix(0.0997068,0,0,-0.0997068,0.586387,189.881642)"/>
<path style="fill:none;stroke-width:18.1369;stroke-linecap:round;stroke-linejoin:round;stroke:rgb(100%,0%,0%);stroke-opacity:1;stroke-miterlimit:10;" d="M 2133.869058 1815.859154 L 3861.199106 88.529106 " transform="matrix(0.0997068,0,0,-0.0997068,0.586387,189.881642)"/>
</g>
</svg>
